<svg xmlns="http://www.w3.org/2000/svg" xmlns:xlink="http://www.w3.org/1999/xlink" width="816" zoomAndPan="magnify" viewBox="0 0 612 791.999994" height="1056" preserveAspectRatio="xMidYMid meet" version="1.0"><defs><g/></defs><g fill="#134473" fill-opacity="1"><g transform="translate(87.37563, 529.297512)"><g><path d="M 21.453125 -32.609375 C 22.671875 -32.609375 23.71875 -32.441406 24.59375 -32.109375 L 24.53125 -24.921875 C 23.1875 -25.460938 21.800781 -25.734375 20.375 -25.734375 C 17.6875 -25.734375 15.632812 -24.953125 14.21875 -23.390625 C 12.8125 -21.835938 12.109375 -19.78125 12.109375 -17.21875 L 12.109375 0 L 4.296875 0 L 4.296875 -22.828125 C 4.296875 -26.191406 4.125 -29.203125 3.78125 -31.859375 L 11.171875 -31.859375 L 11.796875 -26.234375 C 12.597656 -28.296875 13.859375 -29.875 15.578125 -30.96875 C 17.304688 -32.0625 19.265625 -32.609375 21.453125 -32.609375 Z M 21.453125 -32.609375 "/></g></g></g><g fill="#134473" fill-opacity="1"><g transform="translate(140.607719, 529.297512)"><g><path d="M 32.171875 -15.515625 L 10.21875 -15.515625 C 10.382812 -12.109375 11.234375 -9.59375 12.765625 -7.96875 C 14.304688 -6.351562 16.59375 -5.546875 19.625 -5.546875 C 23.113281 -5.546875 26.347656 -6.679688 29.328125 -8.953125 L 31.609375 -3.53125 C 30.085938 -2.3125 28.222656 -1.332031 26.015625 -0.59375 C 23.804688 0.132812 21.566406 0.5 19.296875 0.5 C 14.085938 0.5 9.988281 -0.96875 7 -3.90625 C 4.007812 -6.851562 2.515625 -10.890625 2.515625 -16.015625 C 2.515625 -19.253906 3.164062 -22.132812 4.46875 -24.65625 C 5.78125 -27.1875 7.613281 -29.15625 9.96875 -30.5625 C 12.320312 -31.96875 14.992188 -32.671875 17.984375 -32.671875 C 22.347656 -32.671875 25.800781 -31.25 28.34375 -28.40625 C 30.894531 -25.570312 32.171875 -21.675781 32.171875 -16.71875 Z M 18.171875 -27 C 16.066406 -27 14.347656 -26.378906 13.015625 -25.140625 C 11.691406 -23.898438 10.84375 -22.101562 10.46875 -19.75 L 25.296875 -19.75 C 25.046875 -22.144531 24.320312 -23.953125 23.125 -25.171875 C 21.925781 -26.390625 20.273438 -27 18.171875 -27 Z M 18.171875 -27 "/></g></g></g><g fill="#134473" fill-opacity="1"><g transform="translate(203.678946, 529.297512)"><g><path d="M 15.953125 0.5 C 10.191406 0.5 5.609375 -0.84375 2.203125 -3.53125 L 4.421875 -9.078125 C 7.828125 -6.554688 11.710938 -5.296875 16.078125 -5.296875 C 17.972656 -5.296875 19.4375 -5.609375 20.46875 -6.234375 C 21.5 -6.867188 22.015625 -7.753906 22.015625 -8.890625 C 22.015625 -9.859375 21.65625 -10.625 20.9375 -11.1875 C 20.226562 -11.757812 19.007812 -12.253906 17.28125 -12.671875 L 11.984375 -13.875 C 6.179688 -15.132812 3.28125 -18.097656 3.28125 -22.765625 C 3.28125 -24.703125 3.828125 -26.414062 4.921875 -27.90625 C 6.015625 -29.40625 7.546875 -30.570312 9.515625 -31.40625 C 11.492188 -32.25 13.789062 -32.671875 16.40625 -32.671875 C 18.675781 -32.671875 20.859375 -32.320312 22.953125 -31.625 C 25.054688 -30.9375 26.910156 -29.941406 28.515625 -28.640625 L 26.171875 -23.28125 C 22.984375 -25.632812 19.707031 -26.8125 16.34375 -26.8125 C 14.53125 -26.8125 13.117188 -26.472656 12.109375 -25.796875 C 11.097656 -25.128906 10.59375 -24.207031 10.59375 -23.03125 C 10.59375 -22.101562 10.894531 -21.363281 11.5 -20.8125 C 12.113281 -20.269531 13.160156 -19.804688 14.640625 -19.421875 L 20.0625 -18.234375 C 23.21875 -17.515625 25.519531 -16.40625 26.96875 -14.90625 C 28.414062 -13.414062 29.140625 -11.472656 29.140625 -9.078125 C 29.140625 -6.140625 27.960938 -3.804688 25.609375 -2.078125 C 23.253906 -0.359375 20.035156 0.5 15.953125 0.5 Z M 15.953125 0.5 "/></g></g></g><g fill="#134473" fill-opacity="1"><g transform="translate(263.785796, 529.297512)"><g><path d="M 32.171875 -15.515625 L 10.21875 -15.515625 C 10.382812 -12.109375 11.234375 -9.59375 12.765625 -7.96875 C 14.304688 -6.351562 16.59375 -5.546875 19.625 -5.546875 C 23.113281 -5.546875 26.347656 -6.679688 29.328125 -8.953125 L 31.609375 -3.53125 C 30.085938 -2.3125 28.222656 -1.332031 26.015625 -0.59375 C 23.804688 0.132812 21.566406 0.5 19.296875 0.5 C 14.085938 0.5 9.988281 -0.96875 7 -3.90625 C 4.007812 -6.851562 2.515625 -10.890625 2.515625 -16.015625 C 2.515625 -19.253906 3.164062 -22.132812 4.46875 -24.65625 C 5.78125 -27.1875 7.613281 -29.15625 9.96875 -30.5625 C 12.320312 -31.96875 14.992188 -32.671875 17.984375 -32.671875 C 22.347656 -32.671875 25.800781 -31.25 28.34375 -28.40625 C 30.894531 -25.570312 32.171875 -21.675781 32.171875 -16.71875 Z M 18.171875 -27 C 16.066406 -27 14.347656 -26.378906 13.015625 -25.140625 C 11.691406 -23.898438 10.84375 -22.101562 10.46875 -19.75 L 25.296875 -19.75 C 25.046875 -22.144531 24.320312 -23.953125 23.125 -25.171875 C 21.925781 -26.390625 20.273438 -27 18.171875 -27 Z M 18.171875 -27 "/></g></g></g><g fill="#134473" fill-opacity="1"><g transform="translate(326.857031, 529.297512)"><g><path d="M 34.75 -31.859375 L 34.75 0 L 27 0 L 27 -5.109375 C 26.03125 -3.335938 24.640625 -1.957031 22.828125 -0.96875 C 21.023438 0.0078125 18.96875 0.5 16.65625 0.5 C 13.875 0.5 11.410156 -0.171875 9.265625 -1.515625 C 7.128906 -2.859375 5.46875 -4.769531 4.28125 -7.25 C 3.101562 -9.726562 2.515625 -12.609375 2.515625 -15.890625 C 2.515625 -19.171875 3.113281 -22.082031 4.3125 -24.625 C 5.519531 -27.175781 7.191406 -29.15625 9.328125 -30.5625 C 11.472656 -31.96875 13.914062 -32.671875 16.65625 -32.671875 C 18.96875 -32.671875 21.023438 -32.175781 22.828125 -31.1875 C 24.640625 -30.195312 26.03125 -28.820312 27 -27.0625 L 27 -31.859375 Z M 18.796875 -5.671875 C 21.398438 -5.671875 23.414062 -6.578125 24.84375 -8.390625 C 26.28125 -10.203125 27 -12.742188 27 -16.015625 C 27 -19.378906 26.28125 -21.96875 24.84375 -23.78125 C 23.414062 -25.59375 21.378906 -26.5 18.734375 -26.5 C 16.128906 -26.5 14.097656 -25.5625 12.640625 -23.6875 C 11.191406 -21.8125 10.46875 -19.210938 10.46875 -15.890625 C 10.46875 -12.609375 11.191406 -10.082031 12.640625 -8.3125 C 14.097656 -6.550781 16.148438 -5.671875 18.796875 -5.671875 Z M 18.796875 -5.671875 "/></g></g></g><g fill="#134473" fill-opacity="1"><g transform="translate(394.406323, 529.297512)"><g><path d="M 21.453125 -32.609375 C 22.671875 -32.609375 23.71875 -32.441406 24.59375 -32.109375 L 24.53125 -24.921875 C 23.1875 -25.460938 21.800781 -25.734375 20.375 -25.734375 C 17.6875 -25.734375 15.632812 -24.953125 14.21875 -23.390625 C 12.8125 -21.835938 12.109375 -19.78125 12.109375 -17.21875 L 12.109375 0 L 4.296875 0 L 4.296875 -22.828125 C 4.296875 -26.191406 4.125 -29.203125 3.78125 -31.859375 L 11.171875 -31.859375 L 11.796875 -26.234375 C 12.597656 -28.296875 13.859375 -29.875 15.578125 -30.96875 C 17.304688 -32.0625 19.265625 -32.609375 21.453125 -32.609375 Z M 21.453125 -32.609375 "/></g></g></g><g fill="#134473" fill-opacity="1"><g transform="translate(447.638421, 529.297512)"><g><path d="M 18.734375 0.5 C 15.410156 0.5 12.53125 -0.171875 10.09375 -1.515625 C 7.65625 -2.859375 5.78125 -4.757812 4.46875 -7.21875 C 3.164062 -9.675781 2.515625 -12.566406 2.515625 -15.890625 C 2.515625 -19.210938 3.195312 -22.132812 4.5625 -24.65625 C 5.9375 -27.1875 7.875 -29.15625 10.375 -30.5625 C 12.875 -31.96875 15.765625 -32.671875 19.046875 -32.671875 C 21.316406 -32.671875 23.515625 -32.3125 25.640625 -31.59375 C 27.765625 -30.882812 29.457031 -29.898438 30.71875 -28.640625 L 28.515625 -23.09375 C 27.171875 -24.1875 25.738281 -25.015625 24.21875 -25.578125 C 22.707031 -26.148438 21.21875 -26.4375 19.75 -26.4375 C 16.882812 -26.4375 14.648438 -25.539062 13.046875 -23.75 C 11.453125 -21.957031 10.65625 -19.378906 10.65625 -16.015625 C 10.65625 -12.648438 11.441406 -10.082031 13.015625 -8.3125 C 14.597656 -6.550781 16.84375 -5.671875 19.75 -5.671875 C 21.21875 -5.671875 22.707031 -5.960938 24.21875 -6.546875 C 25.738281 -7.140625 27.171875 -7.984375 28.515625 -9.078125 L 30.71875 -3.53125 C 29.375 -2.269531 27.628906 -1.28125 25.484375 -0.5625 C 23.335938 0.144531 21.085938 0.5 18.734375 0.5 Z M 18.734375 0.5 "/></g></g></g><g fill="#134473" fill-opacity="1"><g transform="translate(507.871448, 529.297512)"><g><path d="M 22.515625 -32.671875 C 30.128906 -32.671875 33.9375 -28.296875 33.9375 -19.546875 L 33.9375 0 L 26.046875 0 L 26.046875 -19.171875 C 26.046875 -21.691406 25.5625 -23.53125 24.59375 -24.6875 C 23.632812 -25.851562 22.144531 -26.4375 20.125 -26.4375 C 17.726562 -26.4375 15.789062 -25.664062 14.3125 -24.125 C 12.84375 -22.59375 12.109375 -20.566406 12.109375 -18.046875 L 12.109375 0 L 4.296875 0 L 4.296875 -46.421875 L 12.109375 -46.421875 L 12.109375 -27.25 C 13.203125 -28.976562 14.648438 -30.3125 16.453125 -31.25 C 18.265625 -32.195312 20.285156 -32.671875 22.515625 -32.671875 Z M 22.515625 -32.671875 "/></g></g></g><g fill="#134473" fill-opacity="1"><g transform="translate(76.464482, 465.41754)"><g><path d="M 117.578125 -84.015625 C 127.015625 -81.273438 134.28125 -76.476562 139.375 -69.625 C 144.476562 -62.78125 147.03125 -54.335938 147.03125 -44.296875 C 147.03125 -30.441406 142.117188 -19.59375 132.296875 -11.75 C 122.484375 -3.914062 108.828125 0 91.328125 0 L 17.578125 0 L 17.578125 -162.5625 L 89.046875 -162.5625 C 105.785156 -162.5625 118.945312 -158.789062 128.53125 -151.25 C 138.125 -143.71875 142.921875 -133.332031 142.921875 -120.09375 C 142.921875 -111.570312 140.675781 -104.148438 136.1875 -97.828125 C 131.695312 -91.515625 125.492188 -86.910156 117.578125 -84.015625 Z M 46.34375 -94.0625 L 84.25 -94.0625 C 104.644531 -94.0625 114.84375 -101.671875 114.84375 -116.890625 C 114.84375 -124.503906 112.328125 -130.210938 107.296875 -134.015625 C 102.273438 -137.828125 94.59375 -139.734375 84.25 -139.734375 L 46.34375 -139.734375 Z M 88.125 -22.828125 C 98.78125 -22.828125 106.582031 -24.726562 111.53125 -28.53125 C 116.476562 -32.34375 118.953125 -38.359375 118.953125 -46.578125 C 118.953125 -54.953125 116.476562 -61.113281 111.53125 -65.0625 C 106.582031 -69.019531 98.78125 -71 88.125 -71 L 46.34375 -71 L 46.34375 -22.828125 Z M 88.125 -22.828125 "/></g></g></g><g fill="#134473" fill-opacity="1"><g transform="translate(221.183219, 465.41754)"><g><path d="M 72.609375 2.0625 C 60.117188 2.0625 48.429688 0.390625 37.546875 -2.953125 C 26.671875 -6.304688 17.425781 -11.109375 9.8125 -17.359375 L 19.859375 -38.8125 C 27.773438 -32.875 36.03125 -28.5 44.625 -25.6875 C 53.226562 -22.875 62.628906 -21.46875 72.828125 -21.46875 C 84.097656 -21.46875 92.8125 -23.441406 98.96875 -27.390625 C 105.132812 -31.347656 108.21875 -36.90625 108.21875 -44.0625 C 108.21875 -50.15625 105.363281 -54.835938 99.65625 -58.109375 C 93.945312 -61.378906 84.550781 -64.460938 71.46875 -67.359375 C 51.070312 -71.765625 36.226562 -77.46875 26.9375 -84.46875 C 17.65625 -91.476562 13.015625 -101.675781 13.015625 -115.0625 C 13.015625 -124.65625 15.597656 -133.179688 20.765625 -140.640625 C 25.941406 -148.097656 33.285156 -153.957031 42.796875 -158.21875 C 52.316406 -162.476562 63.316406 -164.609375 75.796875 -164.609375 C 87.210938 -164.609375 98.054688 -162.894531 108.328125 -159.46875 C 118.609375 -156.050781 127.019531 -151.296875 133.5625 -145.203125 L 123.75 -123.75 C 109.289062 -135.3125 93.304688 -141.09375 75.796875 -141.09375 C 65.296875 -141.09375 57 -138.921875 50.90625 -134.578125 C 44.820312 -130.242188 41.78125 -124.347656 41.78125 -116.890625 C 41.78125 -110.503906 44.476562 -105.632812 49.875 -102.28125 C 55.28125 -98.9375 64.53125 -95.816406 77.625 -92.921875 C 91.175781 -89.722656 102.210938 -86.257812 110.734375 -82.53125 C 119.253906 -78.800781 125.796875 -74.003906 130.359375 -68.140625 C 134.929688 -62.285156 137.21875 -54.945312 137.21875 -46.125 C 137.21875 -36.375 134.628906 -27.882812 129.453125 -20.65625 C 124.273438 -13.425781 116.816406 -7.832031 107.078125 -3.875 C 97.335938 0.0820312 85.847656 2.0625 72.609375 2.0625 Z M 72.609375 2.0625 "/></g></g></g><g fill="#134473" fill-opacity="1"><g transform="translate(355.401601, 465.41754)"><g><path d="M 17.578125 -162.5625 L 88.125 -162.5625 C 105.632812 -162.5625 119.257812 -158.335938 129 -149.890625 C 138.738281 -141.441406 143.609375 -129.910156 143.609375 -115.296875 C 143.609375 -100.679688 138.695312 -89.113281 128.875 -80.59375 C 119.0625 -72.070312 105.476562 -67.8125 88.125 -67.8125 L 47.03125 -67.8125 L 47.03125 0 L 17.578125 0 Z M 84.703125 -90.640625 C 94.898438 -90.640625 102.625 -92.734375 107.875 -96.921875 C 113.125 -101.109375 115.75 -107.15625 115.75 -115.0625 C 115.75 -123.132812 113.160156 -129.265625 107.984375 -133.453125 C 102.816406 -137.640625 95.054688 -139.734375 84.703125 -139.734375 L 47.03125 -139.734375 L 47.03125 -90.640625 Z M 84.703125 -90.640625 "/></g></g></g><path stroke-linecap="butt" transform="matrix(-0.000000000000002457, 0.751355, -0.75, -0.000000000000002452, 482.640218, 410.90496)" fill="none" stroke-linejoin="miter" d="M 0.00171742 6.499458 L 77.861099 6.499458 " stroke="#c41d1d" stroke-width="13" stroke-opacity="1" stroke-miterlimit="4"/><path stroke-linecap="butt" transform="matrix(0.000000000000000046, 0.750204, -0.75, 0.000000000000000046, 513.476641, 383.070793)" fill="none" stroke-linejoin="miter" d="M -0.000640481 6.500105 L 114.978537 6.500105 " stroke="#c41d1d" stroke-width="13" stroke-opacity="1" stroke-miterlimit="4"/><path stroke-linecap="butt" transform="matrix(0.000000000000000046, 0.749858, -0.75, 0.000000000000000046, 541.06188, 345.524007)" fill="none" stroke-linejoin="miter" d="M -0.000759283 6.499173 L 165.040921 6.499173 " stroke="#c41d1d" stroke-width="13" stroke-opacity="1" stroke-miterlimit="4"/><path stroke-linecap="butt" transform="matrix(0.000000000000000046, 0.751505, -0.75, 0.000000000000000046, 450.072892, 440.10595)" fill="none" stroke-linejoin="miter" d="M -0.000640596 6.498231 L 38.931632 6.498231 " stroke="#c41d1d" stroke-width="13" stroke-opacity="1" stroke-miterlimit="4"/></svg>